<?xml version="1.0" standalone="no"?>
<!DOCTYPE svg PUBLIC "-//W3C//DTD SVG 20010904//EN"
 "http://www.w3.org/TR/2001/REC-SVG-20010904/DTD/svg10.dtd">
<svg version="1.0" xmlns="http://www.w3.org/2000/svg"
 width="1280.000000pt" height="1002.000000pt" viewBox="0 0 1280.000000 1002.000000"
 preserveAspectRatio="xMidYMid meet">
<g transform="translate(0.000000,1002.000000) scale(0.100000,-0.100000)"
fill="#000000" stroke="none">
<path d="M6080 9869 c-41 -5 -183 -27 -315 -49 -440 -74 -416 -71 -905 -80
-475 -8 -531 -12 -709 -61 -282 -76 -624 -262 -882 -477 -122 -102 -311 -300
-415 -433 -185 -237 -285 -388 -586 -888 -240 -398 -288 -473 -409 -647 -106
-152 -148 -231 -176 -334 -16 -59 -18 -109 -15 -515 3 -601 -11 -760 -88 -980
-64 -182 -158 -337 -440 -725 -553 -760 -838 -1247 -896 -1530 -90 -447 318
-1000 985 -1333 365 -183 695 -256 1101 -244 221 7 351 23 595 72 524 106
1176 343 1632 593 152 84 217 129 423 292 244 194 371 270 452 270 25 0 74
-26 81 -42 2 -7 60 -87 127 -178 416 -559 597 -936 870 -1810 89 -282 119
-368 104 -290 -10 53 -134 449 -213 682 -178 521 -328 909 -461 1188 -49 102
-94 207 -101 233 -15 60 -6 232 16 337 22 98 77 262 165 489 39 101 69 188 68
193 -2 5 -62 -56 -133 -134 -491 -539 -817 -813 -1265 -1063 -752 -420 -1911
-718 -2591 -667 -337 25 -595 104 -816 248 -97 62 -237 198 -268 257 -19 37
-20 39 -1 52 10 8 44 16 75 20 31 3 79 12 107 20 104 30 258 153 408 324 236
269 341 464 321 596 -17 117 -152 220 -355 271 -105 27 -336 24 -523 -5 -150
-23 -257 -27 -288 -11 -30 16 -24 74 14 155 19 39 77 142 129 230 53 88 182
311 288 495 349 606 435 741 725 1129 261 350 313 441 337 587 21 126 -32 277
-184 520 -130 207 -162 287 -162 401 1 140 71 229 334 428 162 122 355 308
447 430 33 44 133 187 224 319 199 290 329 454 480 606 301 303 591 480 1024
627 425 144 758 177 1220 123 50 -6 272 -15 495 -20 427 -9 510 -17 705 -66
442 -111 1069 -439 1923 -1007 888 -588 1577 -1151 1885 -1537 277 -347 432
-701 492 -1125 20 -135 19 -429 -1 -564 -55 -383 -221 -745 -524 -1146 -259
-344 -647 -733 -942 -945 -397 -285 -820 -431 -1291 -447 -410 -14 -612 75
-740 324 -90 178 -135 356 -174 703 -15 129 -18 240 -17 655 0 519 -1 494 69
1615 13 217 29 539 36 715 28 759 -46 1196 -261 1550 -177 290 -434 508 -597
508 -70 0 -99 -21 -138 -98 -27 -54 -30 -69 -30 -155 1 -117 21 -196 80 -317
67 -136 155 -252 385 -503 155 -169 224 -251 280 -335 136 -202 181 -390 181
-755 0 -319 -26 -599 -141 -1540 -136 -1106 -151 -1465 -79 -1825 106 -527
438 -833 962 -886 327 -33 786 65 1219 261 310 141 601 326 890 566 421 350
785 779 1086 1277 57 93 80 115 135 124 46 7 65 -5 281 -176 259 -204 334
-269 543 -473 105 -104 196 -188 202 -188 6 0 11 7 11 14 0 25 -74 159 -132
242 -149 210 -477 563 -708 759 -58 49 -110 95 -117 103 -9 10 -2 39 28 130
108 320 152 617 130 877 -42 492 -235 814 -786 1315 -960 871 -2264 1784
-3262 2283 -419 210 -717 319 -1028 378 -125 24 -473 35 -605 18z"/>
<path d="M3883 6970 c-60 -13 -110 -38 -133 -68 -75 -95 80 -412 320 -653 133
-134 200 -171 323 -177 143 -7 216 32 415 221 150 143 200 177 256 177 63 0
72 10 57 62 -20 66 -133 172 -241 225 -245 121 -837 247 -997 213z"/>
</g>
</svg>
